 <svg
                      className="h-5 w-5"
                      xmlns="http://www.w3.org/2000/svg"
                      aria-hidden="true"
                      role="img"
                      preserveAspectRatio="xMidYMid meet"
                      viewBox="0 0 24 24"
                    >
                      <g
                        fill="#fff"
                        stroke="#EE1D23"
                        strokeLinejoin="round"
                        strokeWidth={2}
                      >
                        <path
                          strokeLinecap="round"
                          d="M4 4v16a2 2 0 0 0 2 2h12a2 2 0 0 0 2-2V8.342a2 2 0 0 0-.602-1.43l-4.44-4.342A2 2 0 0 0 13.56 2H6a2 2 0 0 0-2 2Zm5 9h6m-6 4h3"
                        />
                        <path d="M14 2v4a2 2 0 0 0 2 2h4" />
                      </g>
                    </svg>